<svg width="218" height="18" viewBox="0 0 218 18" fill="none" xmlns="http://www.w3.org/2000/svg">
<g clip-path="url(#clip0_10538_65159)">
<path d="M28.5066 2.47667H29.8194L34.8455 14.2974H33.1951L31.9949 11.4079H26.106L24.9057 14.2974H23.3304L28.5066 2.47667ZM29.1442 4.27792L26.6311 10.0945H31.4322L29.1442 4.27792Z" fill="#1C6635"/>
<path d="M42.9851 12.4586C42.9851 12.7964 42.9851 13.1341 43.0226 13.4718C43.0601 13.772 43.0601 14.0723 43.0601 14.3349H41.8223C41.8223 14.1098 41.8223 13.9221 41.8223 13.697C41.8223 13.4718 41.8223 13.2842 41.8223 13.059H41.7848C41.7098 13.2467 41.5597 13.4343 41.4097 13.6219C41.2597 13.8096 41.0721 13.9597 40.8471 14.1098C40.622 14.2599 40.3595 14.3725 40.0969 14.4475C39.8343 14.5226 39.5343 14.5601 39.1967 14.5601C38.6716 14.5601 38.259 14.485 37.8839 14.3349C37.5088 14.1848 37.2087 13.9597 36.9462 13.697C36.6836 13.4343 36.5336 13.0966 36.421 12.6838C36.3085 12.271 36.2335 11.8582 36.2335 11.4079V6.60457H37.5463V11.2953C37.5463 11.9708 37.6963 12.4586 37.9964 12.8339C38.2965 13.2092 38.7466 13.3968 39.3467 13.3968C39.7593 13.3968 40.1344 13.3217 40.4345 13.1716C40.7345 13.0215 40.9971 12.8339 41.1846 12.5712C41.3722 12.3085 41.5222 11.9708 41.6347 11.6331C41.7473 11.2578 41.7848 10.845 41.7848 10.4322V6.6421H43.0976V12.4586H42.9851Z" fill="#1C6635"/>
<path d="M45.6106 12.271C45.8732 12.6087 46.1358 12.8339 46.4358 13.0215C46.7359 13.2091 47.111 13.3217 47.5986 13.3217C47.7861 13.3217 48.0112 13.2842 48.1987 13.2467C48.3863 13.2091 48.5738 13.1341 48.7614 13.0215C48.9114 12.9089 49.0614 12.7964 49.174 12.6463C49.2865 12.4961 49.324 12.3085 49.324 12.1209C49.324 11.8957 49.2865 11.7456 49.174 11.5955C49.0614 11.4454 48.9489 11.3328 48.7989 11.2578C48.6488 11.1452 48.4613 11.0702 48.2737 11.0326C48.0862 10.9951 47.8612 10.92 47.6736 10.8825C47.2985 10.8075 46.961 10.7324 46.6234 10.6198C46.2858 10.5073 45.9857 10.3947 45.7607 10.2446C45.4981 10.0945 45.3106 9.86932 45.1605 9.60664C45.0105 9.34396 44.9355 9.00622 44.9355 8.63096C44.9355 8.2557 45.0105 7.91797 45.198 7.61776C45.3481 7.31755 45.5731 7.09239 45.8732 6.90476C46.1358 6.71713 46.4733 6.56703 46.8109 6.45445C47.1485 6.34187 47.5236 6.30434 47.8612 6.30434C48.4238 6.30434 48.9489 6.41693 49.399 6.64208C49.8866 6.86724 50.2242 7.2425 50.5243 7.73034L49.4365 8.44333C49.2865 8.18065 49.0614 7.95549 48.7614 7.76786C48.4988 7.58023 48.1612 7.50518 47.7861 7.50518C47.5986 7.50518 47.4111 7.54271 47.261 7.58023C47.0735 7.61776 46.9234 7.69281 46.7734 7.76786C46.6234 7.84292 46.5108 7.95549 46.3983 8.1056C46.2858 8.2557 46.2483 8.40581 46.2483 8.59344C46.2483 8.74354 46.2858 8.89364 46.3983 9.00622C46.5108 9.1188 46.6609 9.23138 46.8484 9.30643C47.036 9.38148 47.261 9.45654 47.4861 9.53159C47.7111 9.60664 47.9737 9.64416 48.2362 9.68169C48.5738 9.75674 48.9114 9.83179 49.2115 9.94437C49.5115 10.057 49.8116 10.2071 50.0366 10.3572C50.2617 10.5448 50.4492 10.7699 50.5993 11.0326C50.7493 11.2953 50.7868 11.633 50.7868 12.0083C50.7868 12.4586 50.7118 12.8339 50.5243 13.1341C50.3367 13.4343 50.1117 13.697 49.8116 13.8846C49.5115 14.0722 49.174 14.2223 48.7989 14.2974C48.4238 14.3725 48.0487 14.4475 47.6736 14.4475C46.9985 14.4475 46.4358 14.3349 45.9482 14.1473C45.4606 13.9597 45.0105 13.5469 44.6354 13.0215L45.6106 12.271Z" fill="#1C6635"/>
<path d="M56.8252 7.58028H54.5372V11.483C54.5372 11.7457 54.5372 11.9708 54.5372 12.196C54.5372 12.4211 54.5747 12.6088 54.6872 12.7589C54.7622 12.909 54.8747 13.0591 55.0248 13.1341C55.1748 13.2467 55.3999 13.2842 55.6999 13.2842C55.8875 13.2842 56.075 13.2467 56.3001 13.2092C56.4876 13.1717 56.6751 13.0966 56.8627 13.0216L56.9002 14.2224C56.6751 14.335 56.4126 14.41 56.15 14.4475C55.8875 14.4851 55.6249 14.5226 55.3623 14.5226C54.9122 14.5226 54.5372 14.4476 54.2371 14.335C53.9745 14.2224 53.7495 14.0348 53.5994 13.8096C53.4494 13.5844 53.3369 13.3218 53.2994 12.984C53.2619 12.6463 53.2244 12.3086 53.2244 11.8958V7.61781H51.5365V6.52955H53.2244V4.31551H54.5372V6.52955H56.8252V7.58028Z" fill="#1C6635"/>
<path d="M58.4012 8.33081C58.4012 7.99307 58.4012 7.65534 58.3637 7.3176C58.3262 7.01739 58.3262 6.71719 58.3262 6.45451H59.564C59.564 6.67966 59.564 6.86729 59.564 7.09245C59.564 7.3176 59.564 7.50523 59.564 7.73039H59.6015C59.6765 7.54276 59.8266 7.35513 59.9766 7.1675C60.1266 6.97987 60.3142 6.82976 60.5392 6.67966C60.7643 6.52955 61.0268 6.41698 61.2894 6.34193C61.552 6.26687 61.852 6.22935 62.1896 6.22935C62.2646 6.22935 62.3771 6.22935 62.4522 6.22935C62.5272 6.22935 62.6397 6.26687 62.7147 6.3044L62.6397 7.61781C62.4147 7.54276 62.1896 7.50523 61.927 7.50523C61.1394 7.50523 60.5392 7.76792 60.2017 8.29328C59.8266 8.81865 59.6765 9.53164 59.6765 10.4323V14.2224H58.3637V8.33081H58.4012Z" fill="#1C6635"/>
<path d="M64.1774 7.50518C64.59 7.09239 65.0401 6.79218 65.6027 6.60455C66.1654 6.41692 66.728 6.30434 67.2906 6.30434C68.4534 6.30434 69.2786 6.56703 69.8037 7.12992C70.3288 7.69281 70.5539 8.51838 70.5539 9.60664V12.9465C70.5539 13.1716 70.5539 13.3968 70.5914 13.6219C70.6289 13.8471 70.6289 14.0722 70.6664 14.2974H69.4286C69.3911 14.1098 69.3536 13.9221 69.3536 13.697C69.3536 13.4718 69.3536 13.2842 69.3536 13.1341H69.3161C69.0535 13.5469 68.7159 13.8471 68.3034 14.1098C67.8908 14.3724 67.3656 14.485 66.7655 14.485C66.3529 14.485 65.9778 14.4475 65.6402 14.3349C65.3027 14.2223 65.0026 14.0722 64.74 13.8846C64.4775 13.697 64.2524 13.4343 64.1024 13.1716C63.9524 12.8714 63.8773 12.5337 63.8773 12.1584C63.8773 11.5205 64.0274 10.9951 64.365 10.6574C64.7025 10.3196 65.1151 10.0194 65.6027 9.8318C66.0903 9.64417 66.6155 9.53159 67.2156 9.49406C67.7782 9.45653 68.3033 9.41901 68.791 9.41901H69.2786V9.23138C69.2786 8.66849 69.091 8.21818 68.7535 7.95549C68.4159 7.65529 67.9283 7.50518 67.3281 7.50518C66.9155 7.50518 66.5029 7.58023 66.0903 7.73034C65.6778 7.88044 65.3402 8.06807 65.0026 8.36828L64.1774 7.50518ZM67.9658 10.5448C67.1406 10.5448 66.4654 10.6574 65.9778 10.8825C65.4902 11.1077 65.2277 11.4829 65.2277 12.0458C65.2277 12.5337 65.3777 12.8714 65.7153 13.0966C66.0528 13.2842 66.4654 13.3968 66.953 13.3968C67.3281 13.3968 67.6657 13.3217 67.9283 13.2091C68.2283 13.0966 68.4534 12.9089 68.6409 12.6838C68.8285 12.4586 68.9785 12.2335 69.091 11.9333C69.2036 11.633 69.2411 11.3328 69.2411 11.0326V10.5448H67.9658Z" fill="#1C6635"/>
<path d="M73.067 1.68873H74.3797V14.2975H73.067V1.68873Z" fill="#1C6635"/>
<path d="M76.78 3.45235C76.78 3.18967 76.855 2.96451 77.0425 2.77688C77.2301 2.58925 77.4551 2.47667 77.7177 2.47667C77.9802 2.47667 78.2053 2.58925 78.3928 2.77688C78.5804 2.96451 78.6554 3.18967 78.6554 3.45235C78.6554 3.71503 78.5804 3.94018 78.3928 4.12781C78.2053 4.31544 77.9802 4.3905 77.7177 4.3905C77.4551 4.3905 77.2301 4.31544 77.0425 4.12781C76.855 3.94018 76.78 3.71503 76.78 3.45235ZM77.08 6.49195H78.3928V14.2974H77.08V6.49195Z" fill="#1C6635"/>
<path d="M80.8685 7.50518C81.2811 7.09239 81.7312 6.79218 82.2938 6.60455C82.8565 6.41692 83.4191 6.30434 83.9817 6.30434C85.1445 6.30434 85.9697 6.56703 86.4948 7.12992C87.0199 7.69281 87.245 8.51838 87.245 9.60664V12.9465C87.245 13.1716 87.245 13.3968 87.2825 13.6219C87.32 13.8471 87.32 14.0722 87.3575 14.2974H86.1197C86.0822 14.1098 86.0447 13.9221 86.0447 13.697C86.0447 13.4718 86.0447 13.2842 86.0447 13.1341H86.0072C85.7446 13.5469 85.4071 13.8471 84.9945 14.1098C84.5819 14.3724 84.0568 14.485 83.4566 14.485C83.044 14.485 82.6689 14.4475 82.3314 14.3349C81.9938 14.2223 81.6937 14.0722 81.4312 13.8846C81.1686 13.697 80.9435 13.4343 80.7935 13.1716C80.6435 12.8714 80.5685 12.5337 80.5685 12.1584C80.5685 11.5205 80.7185 10.9951 81.0561 10.6574C81.3936 10.3196 81.8062 10.0194 82.2938 9.8318C82.7815 9.64417 83.3066 9.53159 83.9067 9.49406C84.4693 9.45653 84.9945 9.41901 85.4821 9.41901H85.9697V9.23138C85.9697 8.66849 85.7822 8.21818 85.4446 7.95549C85.107 7.65529 84.6194 7.50518 84.0192 7.50518C83.6067 7.50518 83.1941 7.58023 82.7815 7.73034C82.3689 7.88044 82.0313 8.06807 81.6937 8.36828L80.8685 7.50518ZM84.6194 10.5448C83.7942 10.5448 83.119 10.6574 82.6314 10.8825C82.1438 11.1077 81.8813 11.4829 81.8813 12.0458C81.8813 12.5337 82.0313 12.8714 82.3689 13.0966C82.7064 13.2842 83.119 13.3968 83.6066 13.3968C83.9817 13.3968 84.3193 13.3217 84.5819 13.2091C84.8819 13.0966 85.107 12.9089 85.2945 12.6838C85.4821 12.4586 85.6321 12.2335 85.7446 11.9333C85.8572 11.633 85.8947 11.3328 85.8947 11.0326V10.5448H84.6194Z" fill="#1C6635"/>
<path d="M90.6207 6.49195H89.3454L90.4706 2.47667H91.971L90.6207 6.49195Z" fill="#1C6635"/>
<path d="M93.1719 12.271C93.4344 12.6087 93.697 12.8339 93.997 13.0215C94.2971 13.2091 94.6722 13.3217 95.1598 13.3217C95.3474 13.3217 95.5724 13.2842 95.7599 13.2467C95.9475 13.2091 96.135 13.1341 96.3226 13.0215C96.4726 12.9089 96.6226 12.7964 96.7352 12.6463C96.8477 12.4961 96.8852 12.3085 96.8852 12.1209C96.8852 11.8957 96.8477 11.7456 96.7352 11.5955C96.6226 11.4454 96.5101 11.3328 96.3601 11.2578C96.21 11.1452 96.0225 11.0702 95.835 11.0326C95.6474 10.9951 95.4224 10.92 95.2348 10.8825C94.8597 10.8075 94.5222 10.7324 94.1846 10.6198C93.847 10.5073 93.5469 10.3947 93.3219 10.2446C93.0593 10.0945 92.8718 9.86932 92.7218 9.60664C92.5717 9.34396 92.4967 9.00622 92.4967 8.63096C92.4967 8.2557 92.5717 7.91797 92.7593 7.61776C92.9093 7.31755 93.1344 7.09239 93.4344 6.90476C93.697 6.71713 94.0346 6.56703 94.3721 6.45445C94.7097 6.34187 95.0848 6.30434 95.4224 6.30434C95.985 6.30434 96.5101 6.41693 96.9602 6.64208C97.4478 6.86724 97.7854 7.2425 98.0855 7.73034L96.9977 8.44333C96.8477 8.18065 96.6226 7.95549 96.3226 7.76786C96.06 7.58023 95.7224 7.50518 95.3474 7.50518C95.1598 7.50518 94.9723 7.54271 94.8222 7.58023C94.6347 7.61776 94.4847 7.69281 94.3346 7.76786C94.1846 7.84292 94.0721 7.95549 93.9595 8.1056C93.847 8.2557 93.8095 8.40581 93.8095 8.59344C93.8095 8.74354 93.847 8.89364 93.9595 9.00622C94.0721 9.1188 94.2221 9.23138 94.4096 9.30643C94.5972 9.38148 94.8222 9.45654 95.0473 9.53159C95.2723 9.60664 95.5349 9.64416 95.7975 9.68169C96.135 9.75674 96.4726 9.83179 96.7727 9.94437C97.0727 10.057 97.3728 10.2071 97.5979 10.3572C97.8229 10.5448 98.0105 10.7699 98.1605 11.0326C98.3105 11.2953 98.348 11.633 98.348 12.0083C98.348 12.4586 98.273 12.8339 98.0855 13.1341C97.8979 13.4343 97.6729 13.697 97.3728 13.8846C97.0727 14.0722 96.7352 14.2223 96.3601 14.2974C95.985 14.3725 95.6099 14.4475 95.2348 14.4475C94.5597 14.4475 93.997 14.3349 93.5094 14.1473C93.0218 13.9597 92.5717 13.5469 92.1966 13.0215L93.1719 12.271Z" fill="#1C6635"/>
<path d="M104.837 1.68873H106.149V14.2975H104.837V1.68873Z" fill="#1C6635"/>
<path d="M108.288 10.3948C108.288 9.79436 108.4 9.23146 108.588 8.74363C108.813 8.25579 109.075 7.80548 109.451 7.46774C109.826 7.09248 110.238 6.8298 110.763 6.64217C111.288 6.45454 111.814 6.34196 112.414 6.34196C113.014 6.34196 113.576 6.45454 114.064 6.64217C114.589 6.8298 115.002 7.13001 115.377 7.46774C115.752 7.80548 116.015 8.25579 116.24 8.74363C116.465 9.23146 116.54 9.79436 116.54 10.3948C116.54 10.9952 116.427 11.5581 116.24 12.0459C116.015 12.5338 115.752 12.9841 115.377 13.3218C115.002 13.6595 114.589 13.9597 114.064 14.1474C113.539 14.335 113.014 14.4476 112.414 14.4476C111.814 14.4476 111.251 14.335 110.763 14.1474C110.238 13.9597 109.826 13.6595 109.451 13.3218C109.075 12.9465 108.813 12.5338 108.588 12.0459C108.4 11.5581 108.288 10.9952 108.288 10.3948ZM109.676 10.3948C109.676 10.8076 109.751 11.1828 109.863 11.5206C109.976 11.8583 110.163 12.1585 110.426 12.4212C110.688 12.6839 110.951 12.8715 111.288 13.0216C111.626 13.1717 112.001 13.2467 112.414 13.2467C112.826 13.2467 113.201 13.1717 113.539 13.0216C113.877 12.8715 114.177 12.6839 114.402 12.4212C114.664 12.1585 114.814 11.8583 114.964 11.5206C115.077 11.1828 115.152 10.8076 115.152 10.3948C115.152 9.98199 115.077 9.60673 114.964 9.26899C114.852 8.93126 114.664 8.63105 114.402 8.36837C114.139 8.10568 113.877 7.91806 113.539 7.76795C113.201 7.61785 112.826 7.5428 112.414 7.5428C112.001 7.5428 111.626 7.61785 111.288 7.76795C110.951 7.91806 110.651 8.10568 110.426 8.36837C110.163 8.63105 110.013 8.93126 109.863 9.26899C109.751 9.60673 109.676 9.98199 109.676 10.3948Z" fill="#1C6635"/>
<path d="M124.191 8.44335C123.928 8.10562 123.628 7.88046 123.291 7.73036C122.953 7.58025 122.616 7.5052 122.241 7.5052C121.79 7.5052 121.415 7.58025 121.078 7.73036C120.74 7.88046 120.478 8.10562 120.253 8.3683C120.028 8.63098 119.877 8.93119 119.765 9.30645C119.652 9.64419 119.615 10.0194 119.615 10.4322C119.615 10.845 119.69 11.2203 119.802 11.558C119.915 11.8957 120.103 12.2335 120.328 12.4962C120.553 12.7588 120.815 12.984 121.153 13.1341C121.49 13.2842 121.828 13.3593 122.241 13.3593C123.103 13.3593 123.741 13.0215 124.228 12.3836L125.204 13.2842C124.829 13.7345 124.379 14.0347 123.853 14.2224C123.328 14.41 122.803 14.5226 122.241 14.5226C121.64 14.5226 121.078 14.41 120.59 14.2224C120.103 14.0347 119.652 13.7345 119.315 13.3593C118.977 12.984 118.677 12.5712 118.49 12.0459C118.302 11.558 118.19 10.9951 118.19 10.3947C118.19 9.79429 118.302 9.26893 118.49 8.74356C118.677 8.25572 118.977 7.80541 119.315 7.43015C119.652 7.05489 120.103 6.79221 120.59 6.56705C121.078 6.37942 121.64 6.26685 122.241 6.26685C122.803 6.26685 123.366 6.37942 123.891 6.56705C124.416 6.75468 124.866 7.09241 125.241 7.5052L124.191 8.44335Z" fill="#1C6635"/>
<path d="M126.592 7.50518C127.004 7.09239 127.454 6.79218 128.017 6.60455C128.58 6.41692 129.142 6.30434 129.705 6.30434C130.868 6.30434 131.693 6.56703 132.218 7.12992C132.743 7.69281 132.968 8.51838 132.968 9.60664V12.9465C132.968 13.1716 132.968 13.3968 133.006 13.6219C133.043 13.8471 133.043 14.0722 133.081 14.2974H131.843C131.805 14.1098 131.768 13.9221 131.768 13.697C131.768 13.4718 131.768 13.2842 131.768 13.1341H131.73C131.468 13.5469 131.13 13.8471 130.718 14.1098C130.305 14.3724 129.78 14.485 129.18 14.485C128.767 14.485 128.392 14.4475 128.054 14.3349C127.717 14.2223 127.417 14.0722 127.154 13.8846C126.892 13.697 126.667 13.4343 126.517 13.1716C126.367 12.8714 126.292 12.5337 126.292 12.1584C126.292 11.5205 126.442 10.9951 126.779 10.6574C127.117 10.2821 127.529 10.0194 128.017 9.8318C128.505 9.64417 129.03 9.53159 129.63 9.49406C130.192 9.45653 130.718 9.41901 131.205 9.41901H131.693V9.23138C131.693 8.66849 131.505 8.21818 131.168 7.95549C130.83 7.65529 130.342 7.50518 129.742 7.50518C129.33 7.50518 128.917 7.58023 128.505 7.73034C128.092 7.88044 127.754 8.06807 127.417 8.36828L126.592 7.50518ZM130.342 10.5448C129.517 10.5448 128.842 10.6574 128.355 10.8825C127.867 11.1077 127.604 11.4829 127.604 12.0458C127.604 12.5337 127.754 12.8714 128.092 13.0966C128.43 13.2842 128.842 13.3968 129.33 13.3968C129.705 13.3968 130.042 13.3217 130.305 13.2091C130.605 13.0966 130.83 12.9089 131.018 12.6838C131.205 12.4586 131.355 12.2335 131.468 11.9333C131.58 11.633 131.618 11.3328 131.618 11.0326V10.5448H130.342Z" fill="#1C6635"/>
<path d="M135.444 1.68873H136.757V14.2975H135.444V1.68873Z" fill="#1C6635"/>
<path d="M143.92 1.68873H145.233V7.61784H145.271C145.608 7.20506 146.058 6.86733 146.508 6.64217C146.996 6.41701 147.484 6.30443 148.084 6.30443C148.684 6.30443 149.247 6.41701 149.772 6.60464C150.259 6.79227 150.709 7.09248 151.047 7.46774C151.385 7.843 151.685 8.25579 151.872 8.78115C152.06 9.26899 152.172 9.83188 152.172 10.4323C152.172 11.0327 152.06 11.5581 151.872 12.0834C151.685 12.5713 151.385 13.0216 151.047 13.3969C150.709 13.7721 150.297 14.0348 149.809 14.26C149.322 14.4476 148.834 14.5602 148.271 14.5602C147.559 14.5602 146.959 14.4101 146.433 14.1098C145.908 13.8096 145.533 13.4344 145.271 12.9841H145.233V14.3725H143.92V1.68873ZM145.196 10.3948C145.196 10.8076 145.271 11.1828 145.383 11.5206C145.496 11.8583 145.683 12.1585 145.946 12.4212C146.208 12.6839 146.471 12.8715 146.808 13.0216C147.146 13.1717 147.521 13.2467 147.934 13.2467C148.346 13.2467 148.721 13.1717 149.059 13.0216C149.397 12.8715 149.697 12.6839 149.922 12.4212C150.184 12.1585 150.334 11.8583 150.484 11.5206C150.634 11.1828 150.672 10.8076 150.672 10.3948C150.672 9.98199 150.597 9.60673 150.484 9.26899C150.372 8.93126 150.184 8.63105 149.922 8.36836C149.659 8.10568 149.397 7.91805 149.059 7.76795C148.721 7.61785 148.346 7.54279 147.934 7.54279C147.521 7.54279 147.146 7.61785 146.808 7.76795C146.471 7.91805 146.171 8.10568 145.946 8.36836C145.683 8.63105 145.533 8.93126 145.383 9.26899C145.233 9.60673 145.196 9.98199 145.196 10.3948Z" fill="#1C6635"/>
<path d="M153.71 10.3948C153.71 9.79436 153.823 9.23146 154.01 8.74363C154.236 8.25579 154.498 7.80548 154.873 7.46774C155.248 7.09248 155.661 6.8298 156.186 6.64217C156.711 6.45454 157.236 6.34196 157.836 6.34196C158.437 6.34196 158.999 6.45454 159.487 6.64217C160.012 6.8298 160.424 7.13001 160.8 7.46774C161.175 7.843 161.437 8.25579 161.662 8.74363C161.887 9.23146 161.962 9.79436 161.962 10.3948C161.962 10.9952 161.85 11.5581 161.662 12.0459C161.437 12.5338 161.175 12.9841 160.8 13.3218C160.424 13.6971 160.012 13.9597 159.487 14.1474C158.962 14.335 158.437 14.4476 157.836 14.4476C157.236 14.4476 156.674 14.335 156.186 14.1474C155.698 13.9597 155.248 13.6595 154.873 13.3218C154.498 12.9465 154.236 12.5338 154.01 12.0459C153.823 11.5581 153.71 10.9952 153.71 10.3948ZM155.098 10.3948C155.098 10.8076 155.173 11.1828 155.286 11.5206C155.398 11.8583 155.586 12.1585 155.848 12.4212C156.111 12.6839 156.374 12.8715 156.711 13.0216C157.049 13.1717 157.424 13.2467 157.836 13.2467C158.249 13.2467 158.624 13.1717 158.962 13.0216C159.299 12.8715 159.599 12.6839 159.824 12.4212C160.087 12.1585 160.237 11.8583 160.387 11.5206C160.499 11.1828 160.574 10.8076 160.574 10.3948C160.574 9.98199 160.499 9.60673 160.387 9.26899C160.274 8.93126 160.087 8.63105 159.824 8.36837C159.562 8.10568 159.299 7.91806 158.962 7.76795C158.624 7.61785 158.249 7.5428 157.836 7.5428C157.424 7.5428 157.049 7.61785 156.711 7.76795C156.374 7.91806 156.073 8.10568 155.848 8.36837C155.586 8.63105 155.436 8.93126 155.286 9.26899C155.173 9.60673 155.098 9.98199 155.098 10.3948Z" fill="#1C6635"/>
<path d="M163.612 10.3948C163.612 9.79436 163.725 9.23146 163.912 8.74363C164.137 8.25579 164.4 7.80548 164.775 7.46774C165.15 7.09248 165.563 6.8298 166.088 6.64217C166.613 6.45454 167.138 6.34196 167.738 6.34196C168.338 6.34196 168.901 6.45454 169.389 6.64217C169.914 6.8298 170.326 7.13001 170.701 7.46774C171.076 7.843 171.339 8.25579 171.564 8.74363C171.789 9.23146 171.864 9.79436 171.864 10.3948C171.864 10.9952 171.752 11.5581 171.564 12.0459C171.339 12.5338 171.076 12.9841 170.701 13.3218C170.326 13.6971 169.914 13.9597 169.389 14.1474C168.863 14.335 168.338 14.4476 167.738 14.4476C167.138 14.4476 166.575 14.335 166.088 14.1474C165.6 13.9597 165.15 13.6595 164.775 13.3218C164.4 12.9465 164.137 12.5338 163.912 12.0459C163.725 11.5581 163.612 10.9952 163.612 10.3948ZM165.038 10.3948C165.038 10.8076 165.113 11.1828 165.225 11.5206C165.338 11.8583 165.525 12.1585 165.788 12.4212C166.05 12.6839 166.313 12.8715 166.65 13.0216C166.988 13.1717 167.363 13.2467 167.776 13.2467C168.188 13.2467 168.563 13.1717 168.901 13.0216C169.238 12.8715 169.539 12.6839 169.764 12.4212C170.026 12.1585 170.176 11.8583 170.326 11.5206C170.439 11.1828 170.514 10.8076 170.514 10.3948C170.514 9.98199 170.439 9.60673 170.326 9.26899C170.214 8.93126 170.026 8.63105 169.764 8.36837C169.501 8.10568 169.238 7.91806 168.901 7.76795C168.563 7.61785 168.188 7.5428 167.776 7.5428C167.363 7.5428 166.988 7.61785 166.65 7.76795C166.313 7.91806 166.013 8.10568 165.788 8.36837C165.525 8.63105 165.375 8.93126 165.225 9.26899C165.075 9.60673 165.038 9.98199 165.038 10.3948Z" fill="#1C6635"/>
<path d="M173.965 1.68873H175.277V9.94445L178.841 6.49206H180.679L176.928 10.057L181.091 14.2975H179.178L175.315 10.2071V14.2975H174.002V1.68873H173.965Z" fill="#1C6635"/>
<path d="M182.479 12.271C182.742 12.6087 183.005 12.8339 183.305 13.0215C183.605 13.2091 183.98 13.3217 184.467 13.3217C184.655 13.3217 184.88 13.2842 185.068 13.2467C185.255 13.2091 185.443 13.1341 185.63 13.0215C185.78 12.9089 185.93 12.7964 186.043 12.6463C186.155 12.4961 186.193 12.3085 186.193 12.1209C186.193 11.8957 186.155 11.7456 186.043 11.5955C185.93 11.4454 185.818 11.3328 185.668 11.2578C185.518 11.1452 185.33 11.0702 185.143 11.0326C184.955 10.9951 184.73 10.92 184.542 10.8825C184.167 10.8075 183.83 10.7324 183.492 10.6198C183.155 10.5073 182.855 10.3947 182.63 10.2446C182.404 10.0945 182.179 9.86932 182.029 9.60664C181.879 9.34396 181.804 9.00622 181.804 8.63096C181.804 8.2557 181.879 7.91797 182.067 7.61776C182.217 7.31755 182.442 7.09239 182.742 6.90476C183.005 6.71713 183.342 6.56703 183.68 6.45445C184.017 6.34187 184.392 6.30434 184.73 6.30434C185.293 6.30434 185.818 6.41693 186.268 6.64208C186.755 6.86724 187.093 7.2425 187.393 7.73034L186.305 8.44333C186.155 8.18065 185.93 7.95549 185.63 7.76786C185.368 7.58023 185.03 7.50518 184.655 7.50518C184.467 7.50518 184.28 7.54271 184.13 7.58023C183.942 7.61776 183.792 7.69281 183.642 7.76786C183.492 7.84292 183.38 7.95549 183.267 8.1056C183.155 8.2557 183.117 8.40581 183.117 8.59344C183.117 8.74354 183.155 8.89364 183.267 9.00622C183.38 9.1188 183.53 9.23138 183.717 9.30643C183.905 9.38148 184.13 9.45654 184.355 9.53159C184.58 9.60664 184.843 9.64416 185.105 9.68169C185.443 9.75674 185.78 9.83179 186.08 9.94437C186.38 10.057 186.68 10.2071 186.906 10.3572C187.131 10.5448 187.318 10.7699 187.468 11.0326C187.618 11.2953 187.656 11.633 187.656 12.0083C187.656 12.4586 187.581 12.8339 187.393 13.1341C187.206 13.4343 186.981 13.697 186.68 13.8846C186.38 14.0722 186.043 14.2223 185.668 14.2974C185.293 14.3725 184.918 14.4475 184.542 14.4475C183.867 14.4475 183.305 14.3349 182.817 14.1473C182.329 13.9597 181.879 13.5469 181.504 13.0215L182.479 12.271Z" fill="#1C6635"/>
<path d="M193.694 7.58028H191.406V11.483C191.406 11.7457 191.406 11.9708 191.406 12.196C191.406 12.4211 191.444 12.6088 191.556 12.7589C191.631 12.909 191.744 13.0591 191.894 13.1341C192.044 13.2467 192.269 13.2842 192.569 13.2842C192.756 13.2842 192.944 13.2467 193.169 13.2092C193.356 13.1717 193.544 13.0966 193.732 13.0216L193.769 14.2224C193.544 14.335 193.281 14.41 193.019 14.4475C192.756 14.4851 192.494 14.5226 192.231 14.5226C191.781 14.5226 191.406 14.4476 191.106 14.335C190.843 14.2224 190.618 14.0348 190.468 13.8096C190.318 13.5844 190.206 13.3218 190.168 12.984C190.131 12.6463 190.093 12.3086 190.093 11.8958V7.61781H188.405V6.52955H190.093V4.31551H191.406V6.52955H193.694V7.58028Z" fill="#1C6635"/>
<path d="M194.82 10.3948C194.82 9.79436 194.932 9.23146 195.12 8.74363C195.345 8.25579 195.607 7.80548 195.982 7.46774C196.357 7.13001 196.77 6.8298 197.295 6.64217C197.82 6.45454 198.345 6.34196 198.946 6.34196C199.546 6.34196 200.108 6.45454 200.596 6.64217C201.121 6.8298 201.534 7.13001 201.909 7.46774C202.284 7.843 202.546 8.25579 202.771 8.74363C202.996 9.23146 203.071 9.79436 203.071 10.3948C203.071 10.9952 202.959 11.5581 202.771 12.0459C202.546 12.5338 202.284 12.9841 201.909 13.3218C201.534 13.6971 201.121 13.9597 200.596 14.1474C200.071 14.335 199.546 14.4476 198.946 14.4476C198.345 14.4476 197.783 14.335 197.295 14.1474C196.77 13.9597 196.357 13.6595 195.982 13.3218C195.607 12.9841 195.345 12.5338 195.12 12.0459C194.932 11.5581 194.82 10.9952 194.82 10.3948ZM196.245 10.3948C196.245 10.8076 196.32 11.1828 196.432 11.5206C196.545 11.8583 196.733 12.1585 196.995 12.4212C197.258 12.6839 197.52 12.8715 197.858 13.0216C198.195 13.1717 198.57 13.2467 198.983 13.2467C199.396 13.2467 199.771 13.1717 200.108 13.0216C200.446 12.8715 200.746 12.6839 200.971 12.4212C201.234 12.1585 201.384 11.8583 201.534 11.5206C201.684 11.1828 201.721 10.8076 201.721 10.3948C201.721 9.98199 201.646 9.60673 201.534 9.26899C201.421 8.93126 201.234 8.63105 200.971 8.36837C200.708 8.10568 200.446 7.91806 200.108 7.76795C199.771 7.61785 199.396 7.5428 198.983 7.5428C198.57 7.5428 198.195 7.61785 197.858 7.76795C197.52 7.91806 197.22 8.10568 196.995 8.36837C196.733 8.63105 196.582 8.93126 196.432 9.26899C196.282 9.60673 196.245 9.98199 196.245 10.3948Z" fill="#1C6635"/>
<path d="M205.21 8.33081C205.21 7.99307 205.21 7.65534 205.172 7.3176C205.135 7.01739 205.135 6.71719 205.135 6.45451H206.372C206.372 6.67966 206.372 6.86729 206.372 7.09245C206.372 7.3176 206.372 7.50523 206.372 7.73039H206.41C206.485 7.54276 206.635 7.35513 206.785 7.1675C206.935 6.97987 207.123 6.82976 207.348 6.67966C207.573 6.52955 207.835 6.41698 208.098 6.34193C208.36 6.26687 208.66 6.22935 208.998 6.22935C209.073 6.22935 209.186 6.22935 209.261 6.22935C209.336 6.22935 209.448 6.26687 209.523 6.3044L209.448 7.61781C209.223 7.54276 208.998 7.50523 208.735 7.50523C207.948 7.50523 207.348 7.76792 207.01 8.29328C206.635 8.81865 206.485 9.53164 206.485 10.4323V14.2224H205.172V8.33081H205.21Z" fill="#1C6635"/>
<path d="M217.737 12.8714C217.287 13.4718 216.762 13.8846 216.2 14.1473C215.637 14.3724 214.999 14.5226 214.249 14.5226C213.649 14.5226 213.086 14.41 212.599 14.1848C212.111 13.9597 211.699 13.6594 211.361 13.3217C211.023 12.9465 210.761 12.5337 210.573 12.0083C210.386 11.4829 210.311 10.9576 210.311 10.3947C210.311 9.79427 210.423 9.23138 210.611 8.74354C210.798 8.2557 211.098 7.80539 211.436 7.43013C211.774 7.05487 212.224 6.79218 212.711 6.60455C213.199 6.41692 213.724 6.30434 214.324 6.30434C214.887 6.30434 215.374 6.3794 215.825 6.56703C216.275 6.75466 216.687 7.01734 216.987 7.35507C217.287 7.69281 217.55 8.14312 217.737 8.63096C217.925 9.1188 218 9.71922 218 10.3572V10.7699H211.699C211.736 11.1077 211.811 11.4079 211.924 11.7456C212.074 12.0458 212.261 12.3085 212.449 12.5337C212.674 12.7588 212.936 12.9465 213.236 13.059C213.537 13.2091 213.874 13.2467 214.212 13.2467C214.774 13.2467 215.262 13.1341 215.637 12.9465C216.012 12.7588 216.387 12.4586 216.687 12.0458L217.737 12.8714ZM216.612 9.68169C216.575 9.00622 216.387 8.48085 215.975 8.06807C215.562 7.65528 214.999 7.46765 214.287 7.46765C213.574 7.46765 212.974 7.65528 212.524 8.06807C212.074 8.48085 211.811 9.00622 211.736 9.68169H216.612Z" fill="#1C6635"/>
<path d="M12.5279 15.5733C12.4528 15.6859 12.4153 15.836 12.4153 15.9861C12.4153 16.0987 12.4528 16.1737 12.4903 16.2863C12.5279 16.3238 12.5279 16.3989 12.5654 16.4739L12.5279 16.8117L12.6779 17.1869L12.7154 17.1494V17.2995C12.8654 17.2995 12.8654 17.3746 13.0155 17.4121L13.0905 17.2995C13.1655 17.3746 13.203 17.3746 13.203 17.262L13.278 17.2245L13.2405 17.1494L13.353 17.1119L13.3155 17.2245L13.353 17.262L13.4656 17.2995C13.5031 17.2244 13.5031 17.1119 13.4656 17.0368C13.5406 17.0368 13.5781 17.0368 13.5781 16.9618L13.5031 16.9993C13.5406 16.8867 13.5406 16.8117 13.6531 16.7741L13.6156 16.9242C13.7281 16.8867 13.6906 16.7741 13.7281 16.6616C13.7656 16.5115 13.8031 16.3614 13.8031 16.2112L13.7656 16.0611L13.6531 16.0987L13.5406 16.0236L13.4656 16.1362C13.3155 16.0236 13.203 16.1362 13.0905 16.0987C12.9404 16.0236 12.8279 15.9486 12.7154 15.7985H12.6029V15.6859L12.5279 15.7234L12.6404 15.5733H12.5279ZM13.7281 15.4983L13.6531 15.5733L13.7281 15.7609L13.6906 15.7234L13.6156 15.7985C13.6531 15.836 13.6531 15.836 13.6906 15.7609L13.7656 15.7985L13.6906 15.836L13.7281 15.9861L13.8782 15.9486C13.8407 15.7985 13.8031 15.7985 13.8782 15.6484L13.7656 15.4607L13.7281 15.4983ZM12.2653 15.1605V15.4607C12.4153 15.3857 12.4153 15.3106 12.3778 15.1605H12.2653ZM12.8279 14.3349C12.8654 14.4475 12.9029 14.5226 12.7154 14.5601V14.41L12.6404 14.4475L12.8279 14.3349ZM9.78973 12.984H10.1273L10.1648 12.909H10.3524L10.3148 12.8339L10.2398 12.8714L10.1648 12.8339V12.7589C10.0898 12.7589 9.78973 12.7589 9.75222 12.8339C9.71471 12.909 9.78973 12.9465 9.78973 12.984ZM0.0375086 7.61778V7.91799C0.0750171 7.80542 0.0750171 7.69284 0.0375086 7.61778ZM15.8286 5.70396L15.9036 5.77901V5.74148L15.8286 5.70396ZM0.862697 5.36622C0.825188 5.44128 0.787679 5.4788 0.825188 5.55385C0.900205 5.51633 0.900205 5.44128 0.862697 5.36622ZM14.7784 4.4656C14.7409 4.54065 14.7784 4.6157 14.8534 4.6157L14.7784 4.4656ZM11.5901 3.48992C11.6652 3.4524 11.6652 3.48992 11.7027 3.41487L11.6652 3.37734C11.5901 3.45239 11.5901 3.4524 11.5901 3.48992ZM4.91362 2.21404L4.87611 2.25156V2.28909H4.95113L4.91362 2.21404ZM10.1273 1.76373H10.2773C10.2773 1.83878 10.2773 1.87631 10.2023 1.95136L10.5399 2.02641V1.95136H10.4274L10.4649 1.83878L10.5399 1.7262L10.4649 1.76373V1.68867C10.3899 1.68867 10.3524 1.68868 10.3148 1.76373V1.7262L10.2773 1.76373V1.68867L10.1273 1.76373ZM10.1273 1.50104V1.53857V1.61362L10.2398 1.5761L10.1273 1.50104ZM10.4649 0.300209L10.3148 0.525368L10.1273 0.712998C10.2398 0.675472 10.5024 0.525366 10.4649 0.300209ZM7.4642 0.300209C7.4642 0.48784 7.35168 0.450315 7.38918 0.600419L7.31417 0.56289L7.27666 0.637947L7.61423 0.67547L7.76427 0.712998L7.98932 0.56289V0.48784C8.02683 0.450313 7.98932 0.41279 7.98932 0.337738L7.9143 0.300209L7.61423 0.412789L7.4642 0.300209ZM13.203 0.18763V0.262687C13.128 0.262687 13.0905 0.262686 13.0905 0.337738L12.9404 0.37526C12.9404 0.600416 12.8654 0.788047 12.7529 0.938151L12.6779 1.16331H12.7904L12.6779 1.35094C12.6779 1.42599 12.6779 1.50104 12.6779 1.53857C12.6404 1.61362 12.6029 1.68868 12.6029 1.76373C12.6029 1.83878 12.6404 1.87631 12.6404 1.95136C12.6404 2.02641 12.6404 2.02641 12.6404 2.13899V2.40167L12.5279 2.70188C12.5279 2.85198 12.4903 2.96456 12.4153 3.11466C12.3778 3.26477 12.3028 3.26477 12.2653 3.33982L12.1903 3.48992C12.1153 3.64003 11.9652 3.71508 11.8152 3.67755C11.7777 3.64003 11.6652 3.56498 11.6276 3.52745C11.5151 3.4524 11.4401 3.4524 11.4401 3.30229L11.5151 3.26477H11.4026C11.4776 3.18972 11.4776 3.15219 11.5901 3.15219L11.7402 3.03961V3.00208C11.5526 2.92703 11.4401 3.03961 11.4026 3.22724L10.99 3.07714L10.8025 2.85198L10.4649 2.70188C10.5024 2.62683 10.5024 2.62683 10.4649 2.51425L10.4274 2.55177V2.47672L10.3524 2.55177H10.2773V2.47672L10.2023 2.55177L9.93976 2.28909V2.25156C9.86475 2.25156 9.86475 2.25157 9.82724 2.21404C9.71471 2.10146 9.90226 1.8763 10.0148 1.83878L10.0898 1.53857L10.0148 1.5761V1.42599L10.1648 1.35094L10.2398 1.27589V1.35094L10.4274 1.20084C10.4274 1.12579 10.3899 1.12578 10.4274 1.05073V0.975679L10.5774 0.825577L10.5024 0.712998L10.3899 0.750521L10.3524 0.56289L10.4274 0.525368C10.3524 0.525368 10.2398 0.637944 10.1648 0.67547L10.2398 0.712998L10.2023 0.750521L10.2773 0.788049C10.2398 0.863101 10.2023 0.863102 10.1273 0.900628C10.1273 0.825576 10.1648 0.825573 10.1273 0.750521V0.67547L9.97727 0.750521V0.712998L10.0898 0.600419L10.0523 0.56289L10.2023 0.37526L9.90226 0.637947C9.75222 0.637947 9.71471 0.750523 9.6397 0.600419L9.56468 0.637947L9.52717 0.56289C9.30212 0.637942 9.41465 0.600419 9.2271 0.600419C9.18959 0.525367 9.15209 0.525368 9.07707 0.525368L9.11458 0.48784V0.450317H8.88953C8.88953 0.412791 8.92703 0.412786 8.88953 0.37526L8.92703 0.300209C8.88952 0.337735 8.85202 0.375263 8.81451 0.412789C8.73949 0.412789 8.70198 0.262684 8.66447 0.225158L8.55195 0.300209L8.51444 0C8.43942 0.037526 8.43942 0.0375295 8.43942 0.150108L8.3644 0.112579L8.3269 0.150108C8.21437 0.0750555 8.17686 0.11258 8.10185 0.225158C8.17686 0.262684 8.21437 0.300208 8.25188 0.37526L8.28939 0.300209L8.40191 0.337738V0.300209C8.47693 0.337735 8.47693 0.337737 8.47693 0.412789L8.55195 0.450317C8.55195 0.525369 8.55195 0.637945 8.43942 0.600419V0.67547L8.3269 0.712998H8.17686L8.02683 0.67547L7.98932 0.600419L7.95181 0.67547L7.87679 0.637947L7.9143 0.56289C7.83929 0.600416 7.83929 0.637946 7.83929 0.712998L7.76427 0.788049L7.65174 0.750521C7.65174 0.788047 7.65174 0.825577 7.57673 0.825577C7.53922 0.900629 7.53922 1.01321 7.4642 1.01321L7.38918 1.12578V1.16331L7.50171 1.20084C7.42669 1.27589 7.42669 1.27589 7.31417 1.27589L7.23915 1.53857L7.12662 1.5761L7.05161 1.76373L7.16413 1.83878L7.20164 1.98888L7.12662 1.95136C7.08912 2.02641 7.05161 1.98888 7.0141 1.98888V2.06393C6.90157 1.98888 6.78905 1.98888 6.67652 1.98888C6.63901 1.98888 6.56399 2.06393 6.52649 2.10146L6.6015 1.91383L6.45147 1.8763C6.41396 1.76372 6.26393 1.50104 6.11389 1.53857V1.50104L6.00137 1.7262C5.92635 1.65115 5.88884 1.65115 5.81382 1.68867L5.77632 1.8763L5.7013 1.80125L5.77632 1.76373V1.7262L5.7013 1.68867V1.7262V1.76373L5.58877 1.83878V1.7262H5.51376V1.83878L5.58877 1.8763H5.51376V1.91383V1.95136V2.06393L5.40123 1.8763L5.2887 2.10146L5.21369 2.02641V2.13899V2.06393C5.10116 2.17651 5.21369 2.21404 5.21369 2.36414L5.10116 2.28909L5.02614 2.36414H5.10116L5.06365 2.51425H4.87611V2.47672H4.80109L4.76359 2.55177H4.68857C4.76359 2.5893 4.76359 2.5893 4.80109 2.55177C4.80109 2.77693 4.72608 2.5893 4.80109 2.92703L4.87611 2.88951V2.85198C4.80109 2.85198 4.80109 2.88951 4.76359 2.96456L4.68857 2.88951C4.65106 2.88951 4.61355 2.88951 4.57604 2.85198L4.53853 2.88951V2.85198L4.3885 2.88951L4.31348 2.85198V2.92703L4.42601 3.00208C4.3885 3.03961 4.31348 3.11466 4.35099 3.15219V3.11466L4.53853 3.33982H4.42601V3.52745C4.35099 3.41487 4.31348 3.30229 4.27597 3.18971L4.20096 3.15219L4.35099 3.00208H4.20096C4.12594 3.07713 4.08843 3.15219 4.05092 3.22724L3.97591 3.30229C3.67584 3.41487 3.86338 3.64003 3.82587 3.86518L3.90089 3.82766V3.90271L3.63833 4.09034V4.16539L3.56331 4.20292C3.56331 4.39055 3.45079 4.54065 3.33826 4.65323C3.15072 4.76581 2.96318 4.87839 2.73812 4.91591C2.6256 4.95344 2.58809 4.87839 2.51307 4.91591C2.43806 4.95344 2.40055 5.02849 2.36304 5.06601L1.98795 5.17859L1.95044 5.29117C1.80041 5.3287 1.80041 5.40375 1.68788 5.29117L1.50034 5.36622L1.57536 5.25364L1.50034 5.17859L1.46283 5.3287L1.38782 5.25364V5.29117H1.42532L1.35031 5.3287L1.42532 5.36622C1.3128 5.51633 1.3128 5.44128 1.20027 5.59138C1.12526 5.66643 1.01273 5.81654 0.900205 5.85406L0.600137 6.04169L0.412594 6.41695C0.337577 6.15427 0.337577 6.30438 0.375085 6.04169C0.337577 6.07922 0.300068 6.07922 0.26256 6.11674C0.225051 6.22932 0.187543 6.37943 0.150034 6.492C0.150034 6.56706 0.225051 6.56706 0.225051 6.67963V6.90479C0.150034 7.0549 0.112526 7.205 0.112526 7.3551C0.112526 7.50521 0.150034 7.50521 0.225051 7.58026L0.300068 7.73036L0.450103 7.95552C0.487611 7.99305 0.52512 8.0681 0.562628 8.14315C0.600137 8.21821 0.600137 8.33078 0.562628 8.40583C0.52512 8.33078 0.487611 8.25573 0.450103 8.18068L0.375085 8.29325C0.337577 8.10563 0.375085 8.14315 0.225051 7.95552C0.187543 8.0681 0.187543 8.18068 0.300068 8.29325C0.412594 8.40583 0.487611 8.40583 0.375085 8.55594L0.225051 8.25573L0.150034 8.29325L0 7.99305C0 8.14315 0.0375085 8.18068 0.112526 8.29325L0.225051 8.48088L0.375085 8.63099C0.450103 8.70604 0.487611 8.78109 0.52512 8.85614C0.675154 9.0813 0.600137 9.15635 0.675154 9.30646C0.712662 9.38151 0.787679 9.45656 0.862697 9.49409C0.900205 9.56914 0.900205 9.64419 0.937714 9.68172C1.01273 9.75677 1.05024 9.83182 1.08775 9.90688L1.12526 10.2446C1.12526 10.2821 1.23778 10.5448 1.23778 10.5823L1.42532 10.8825C1.50034 11.0327 1.61287 11.1452 1.53785 11.3329C1.61287 11.483 1.53785 11.483 1.53785 11.6331C1.53785 11.7832 1.65038 11.8582 1.53785 12.0083C1.53785 12.0459 1.50034 12.0834 1.46283 12.0834C1.42532 12.0834 1.38782 12.0459 1.35031 12.0459C1.3128 12.196 1.35031 12.3836 1.46283 12.4962C1.61287 12.3836 1.72539 12.5712 1.83792 12.6463L2.06297 12.7213C2.13799 12.7589 2.1755 12.6838 2.28802 12.7213C2.36304 12.6838 2.40055 12.6838 2.47556 12.7213L2.6256 12.6838L2.77563 12.6087L2.73812 12.5337C2.85065 12.4586 2.88816 12.4586 2.92567 12.3085C3.11321 12.3461 3.0757 12.3085 3.22573 12.271L3.15072 12.2335C3.30075 11.9333 3.37577 12.0459 3.5258 12.0083L3.67584 11.9333C3.78836 11.9333 3.90089 11.9333 4.01341 11.9333L4.12594 11.8958C4.08843 11.9708 4.08843 11.9708 4.16345 12.0459L4.12594 11.9708L4.16345 12.0083L4.27597 11.9333C4.42601 11.9708 4.46352 11.8582 4.57604 11.9708L4.65106 11.8958C4.87611 11.8958 4.87611 11.5955 4.98864 11.4454C5.06365 11.3704 5.13867 11.3704 5.21369 11.3329L5.66379 11.0327C5.73881 10.9951 5.81382 11.0327 5.88884 11.0327L6.18891 10.9951L6.63901 10.8075C6.71403 10.77 6.78905 10.7324 6.86406 10.6949C7.08911 10.6574 7.27666 10.6199 7.50171 10.6574C7.61423 10.6574 7.65174 10.6199 7.72676 10.6199C7.87679 10.6199 8.06434 10.845 8.13935 10.845C8.13935 10.8826 8.21437 10.8825 8.25188 10.8825C8.36441 10.8075 8.40191 10.9201 8.51444 10.9576C8.58946 10.9576 8.66447 10.9576 8.70198 10.9576L8.58946 11.0702L8.73949 10.9951V11.1452C8.85202 11.1077 8.85202 11.1077 8.88953 11.2203L8.81451 11.2578V11.3704H8.85202V11.4454L8.92703 11.5205H9.07707C9.11458 11.5955 9.11458 11.6706 9.07707 11.7456C9.2271 11.8582 9.30212 12.0083 9.26461 12.196L9.18959 12.1584L9.15208 12.271L9.2271 12.2335L9.33963 12.4586L9.45215 12.3836V12.4586H9.48966L9.52717 12.2335L9.56468 12.1209L9.75222 11.9333L10.0148 11.7832L10.2023 11.4454L10.2773 11.483L10.3148 11.3329C10.3148 11.4079 10.3148 11.4454 10.3524 11.5205C10.2023 11.5955 10.2773 11.6331 10.2398 11.7456C10.2023 11.8582 10.1648 11.8582 10.0898 11.9333C10.0898 12.0459 10.0523 12.1209 9.97727 12.2335L10.0523 12.196L10.0148 12.4211C9.86475 12.3461 9.82724 12.4211 9.75222 12.6087L9.97727 12.5712H10.0898L10.1648 12.4211L10.2773 12.0834C10.3524 12.271 10.4649 12.4962 10.3524 12.6838C10.3148 12.7213 10.2773 12.7589 10.2398 12.7589V12.7964C10.4274 12.8714 10.4649 12.7589 10.5399 12.7964C10.6899 12.909 10.8025 13.0591 10.84 13.2467C10.84 13.2842 10.84 13.3968 10.84 13.4343C10.84 13.4718 10.8025 13.5094 10.765 13.5094C10.765 13.6595 10.765 13.7345 10.915 13.8471V13.8846C10.99 13.9597 10.99 14.0347 11.065 14.1098C11.14 14.1848 11.3651 14.1848 11.3651 14.3349V14.3725L11.4026 14.41L11.4776 14.3349C11.5901 14.3725 11.7027 14.41 11.8152 14.485C11.8902 14.5601 12.0402 14.7102 12.1528 14.7102C12.2653 14.7102 12.4903 14.4475 12.6404 14.5601C12.6779 14.5976 12.6779 14.5976 12.7154 14.6352L12.8279 14.5976L12.7904 14.6727C12.9029 14.7477 13.0155 14.7853 13.053 14.9354L13.128 14.8978C13.1655 14.9729 13.203 15.0104 13.1655 15.0855H13.278V14.9354C13.5031 14.8978 13.6531 14.6727 13.9157 14.5976C14.1782 14.5226 14.3658 14.6727 14.5158 14.6727C14.5908 14.6352 14.6658 14.5976 14.7409 14.5601C14.7409 14.5226 14.7784 14.5226 14.7784 14.485L14.8159 14.5226V14.3349C14.8534 14.2599 14.9284 14.0347 15.0034 13.9972C15.0034 13.9597 14.9659 13.9222 15.0034 13.8846C15.0409 13.7345 15.1159 13.6219 15.2285 13.5094L15.3785 13.4343V13.3593L15.491 13.0591L15.6411 12.9465L15.7536 12.7589L16.0537 12.4211L16.1662 12.3836L16.2787 12.3461C16.3162 12.271 16.3162 12.271 16.3912 12.271L16.4663 12.0834L16.6913 11.7832L16.8038 11.558L16.8413 11.3329L16.9164 11.1828L17.0289 10.9576L17.1414 10.6574L17.2914 10.4322L17.3289 10.132L17.2914 9.98193L17.3665 9.75677L17.404 9.45656L17.3289 9.49409L17.2914 9.71924C17.2539 9.68172 17.2164 9.64419 17.2539 9.60667H17.1789L17.1414 9.45656L17.2164 9.49409C17.2539 9.2314 17.1789 9.11883 17.3289 8.85614C17.2539 8.66852 17.404 8.55594 17.479 8.40583C17.479 8.33078 17.5165 8.25573 17.5165 8.18068L17.404 8.25573C17.404 8.40583 17.404 8.40583 17.2914 8.44336L17.3289 8.51841L17.1789 8.36831L17.1039 8.14315L16.9914 7.99305L16.8413 7.69284L16.6913 7.61778L16.6538 7.3551L16.5788 7.31758L16.5038 7.3551L16.4663 7.12995L16.5038 6.94232C16.5038 6.82974 16.4663 6.71716 16.3912 6.60458L16.3162 6.67963L16.3912 6.71716L16.3537 6.79221L16.2787 6.67963L16.2412 6.71716L16.1662 6.52953L16.0912 6.492L16.0537 6.67963L15.9786 6.64211L15.9036 6.492V6.45448H15.9411L15.8661 6.30437L15.9036 6.15427L15.8286 6.11674C15.8286 6.07922 15.8286 6.00417 15.8286 5.96664C15.7911 5.77901 15.7536 5.81654 15.6786 5.74148C15.6411 5.70396 15.6036 5.62891 15.6036 5.55385H15.7536V5.51633L15.8286 5.59138V5.4788L15.9036 5.55385H15.9411L15.9786 5.51633L15.9036 5.40375L15.9786 5.36622L15.9411 5.40375L15.9786 5.3287H15.9036L15.8661 5.25364L15.9036 5.36622L15.7161 5.17859L15.6411 5.25364C15.6411 5.14107 15.6036 5.14107 15.5285 5.06601L15.4535 5.10354V4.99096L15.416 4.95344H15.3785L15.341 5.02849C15.341 4.91591 15.3035 4.84086 15.2285 4.72828C15.191 4.80333 15.1159 4.76581 15.1159 4.65323L15.0409 4.69075L14.9659 4.65323L15.0409 4.57818C14.9284 4.61571 14.8159 4.54065 14.8159 4.42807V4.39055C14.7784 4.35302 14.8534 4.27797 14.8534 4.20292V4.05281L14.7034 4.09034L14.8159 3.90271C14.7409 3.86518 14.7784 3.82766 14.7784 3.7526C14.7784 3.64002 14.7409 3.52745 14.7034 3.41487H14.6283V3.37734C14.4783 3.30229 14.4408 3.22724 14.3658 3.07714L14.4408 3.03961L14.3658 2.55177L14.4033 2.47672C14.3658 2.40167 14.4033 2.40167 14.4408 2.32662L14.1032 2.06393L14.0657 1.8763L13.9532 1.95136V1.8763C13.8782 1.95135 13.8407 2.02641 13.7656 2.02641C13.6906 2.02641 13.6906 1.8763 13.6531 1.80125L13.6156 1.65115L13.6531 1.46352C13.6531 1.35094 13.5781 1.38847 13.6531 1.16331H13.5031L13.5781 1.05073L13.4281 0.900628C13.4281 0.825576 13.4656 0.750524 13.5406 0.712998C13.4656 0.675472 13.3906 0.675471 13.353 0.600419C13.3155 0.525367 13.3906 0.262683 13.203 0.112579C13.2405 0.262683 13.2405 0.262682 13.203 0.18763ZM12.978 0.300209L13.0905 0.262687L13.128 0.112579C12.978 0.150105 12.978 0.187631 12.978 0.300209ZM12.9404 0.0375283L13.0155 0.0750566V0.0375283H12.9404Z" fill="#1C6635"/>
</g>
<defs>
<clipPath id="clip0_10538_65159">
<rect width="218" height="18" fill="white"/>
</clipPath>
</defs>
</svg>
